<mxfile host="app.diagrams.net" modified="2023-07-27T02:18:57.356Z" agent="Mozilla/5.0 (Windows NT 10.0; Win64; x64) AppleWebKit/537.36 (KHTML, like Gecko) Chrome/114.0.0.0 Safari/537.36" etag="V-ub6gHrkhJrhUGEeW3n" version="21.6.5" type="github">
  <diagram name="Page-1" id="e7e014a7-5840-1c2e-5031-d8a46d1fe8dd">
    <mxGraphModel dx="1434" dy="764" grid="1" gridSize="10" guides="1" tooltips="1" connect="1" arrows="1" fold="1" page="1" pageScale="1" pageWidth="1169" pageHeight="826" background="none" math="0" shadow="0">
      <root>
        <mxCell id="0" />
        <mxCell id="1" parent="0" />
        <mxCell id="2" value="导出备案材料" style="swimlane;whiteSpace=wrap" parent="1" vertex="1">
          <mxGeometry x="164.5" y="128" width="375.5" height="732" as="geometry" />
        </mxCell>
        <mxCell id="5" value="" style="ellipse;shape=startState;fillColor=#000000;strokeColor=#ff0000;" parent="2" vertex="1">
          <mxGeometry x="100" y="40" width="30" height="30" as="geometry" />
        </mxCell>
        <mxCell id="6" value="" style="edgeStyle=elbowEdgeStyle;elbow=horizontal;verticalAlign=bottom;endArrow=open;endSize=8;strokeColor=#FF0000;endFill=1;rounded=0" parent="2" source="5" target="7" edge="1">
          <mxGeometry x="100" y="40" as="geometry">
            <mxPoint x="115" y="110" as="targetPoint" />
          </mxGeometry>
        </mxCell>
        <mxCell id="7" value="获取系统参数" style="" parent="2" vertex="1">
          <mxGeometry x="60" y="110" width="110" height="50" as="geometry" />
        </mxCell>
        <mxCell id="8" value="获取前台入参" style="" parent="2" vertex="1">
          <mxGeometry x="60" y="357" width="110" height="50" as="geometry" />
        </mxCell>
        <mxCell id="9" value="" style="endArrow=open;strokeColor=#FF0000;endFill=1;rounded=0" parent="2" source="7" target="8" edge="1">
          <mxGeometry relative="1" as="geometry" />
        </mxCell>
        <mxCell id="2_pSetCl_xjuwuKrEGpU-51" value="是" style="edgeLabel;html=1;align=center;verticalAlign=middle;resizable=0;points=[];" vertex="1" connectable="0" parent="9">
          <mxGeometry x="0.8274" y="1" relative="1" as="geometry">
            <mxPoint as="offset" />
          </mxGeometry>
        </mxCell>
        <mxCell id="2_pSetCl_xjuwuKrEGpU-65" style="edgeStyle=orthogonalEdgeStyle;rounded=0;orthogonalLoop=1;jettySize=auto;html=1;exitX=0.5;exitY=1;exitDx=0;exitDy=0;strokeColor=#FF3333;" edge="1" parent="2" source="10" target="38">
          <mxGeometry relative="1" as="geometry" />
        </mxCell>
        <mxCell id="10" value="返回关联数据" style="" parent="2" vertex="1">
          <mxGeometry x="75" y="552" width="80" height="34" as="geometry" />
        </mxCell>
        <mxCell id="11" value="" style="endArrow=open;strokeColor=#FF0000;endFill=1;rounded=0" parent="2" source="8" target="10" edge="1">
          <mxGeometry relative="1" as="geometry" />
        </mxCell>
        <mxCell id="12" value="" style="edgeStyle=elbowEdgeStyle;elbow=horizontal;strokeColor=#FF0000;endArrow=open;endFill=1;rounded=0" parent="2" source="10" target="7" edge="1">
          <mxGeometry width="100" height="100" relative="1" as="geometry">
            <mxPoint x="160" y="290" as="sourcePoint" />
            <mxPoint x="260" y="190" as="targetPoint" />
            <Array as="points">
              <mxPoint x="30" y="250" />
            </Array>
          </mxGeometry>
        </mxCell>
        <mxCell id="20" value="" style="endArrow=open;strokeColor=#FF0000;endFill=1;rounded=0;entryX=0;entryY=0.5;entryDx=0;entryDy=0;" parent="2" target="21" edge="1">
          <mxGeometry relative="1" as="geometry">
            <mxPoint x="170" y="134.5" as="sourcePoint" />
            <mxPoint x="300" y="134.5" as="targetPoint" />
          </mxGeometry>
        </mxCell>
        <mxCell id="38" value="" style="ellipse;shape=endState;fillColor=#000000;strokeColor=#FF3333;" parent="2" vertex="1">
          <mxGeometry x="207.75" y="682" width="30" height="30" as="geometry" />
        </mxCell>
        <mxCell id="2_pSetCl_xjuwuKrEGpU-49" value="过滤导出数据&#xa;记录关联数据" style="" vertex="1" parent="2">
          <mxGeometry x="60" y="202" width="110" height="50" as="geometry" />
        </mxCell>
        <mxCell id="2_pSetCl_xjuwuKrEGpU-57" style="edgeStyle=orthogonalEdgeStyle;rounded=0;orthogonalLoop=1;jettySize=auto;html=1;exitX=1;exitY=0.5;exitDx=0;exitDy=0;entryX=0.5;entryY=0;entryDx=0;entryDy=0;strokeColor=#FF3333;" edge="1" parent="2" source="2_pSetCl_xjuwuKrEGpU-50" target="2_pSetCl_xjuwuKrEGpU-54">
          <mxGeometry relative="1" as="geometry" />
        </mxCell>
        <mxCell id="2_pSetCl_xjuwuKrEGpU-58" value="否" style="edgeLabel;html=1;align=center;verticalAlign=middle;resizable=0;points=[];" vertex="1" connectable="0" parent="2_pSetCl_xjuwuKrEGpU-57">
          <mxGeometry x="-0.7439" y="-3" relative="1" as="geometry">
            <mxPoint y="1" as="offset" />
          </mxGeometry>
        </mxCell>
        <mxCell id="2_pSetCl_xjuwuKrEGpU-50" value="是否存在&#xa;关联关系数据" style="rhombus;fillColor=#ffffc0;strokeColor=#ff0000;" vertex="1" parent="2">
          <mxGeometry x="67.5" y="272" width="95" height="45" as="geometry" />
        </mxCell>
        <mxCell id="2_pSetCl_xjuwuKrEGpU-66" style="edgeStyle=orthogonalEdgeStyle;rounded=0;orthogonalLoop=1;jettySize=auto;html=1;exitX=0.5;exitY=1;exitDx=0;exitDy=0;strokeColor=#FF3333;" edge="1" parent="2" source="2_pSetCl_xjuwuKrEGpU-54" target="38">
          <mxGeometry relative="1" as="geometry" />
        </mxCell>
        <mxCell id="2_pSetCl_xjuwuKrEGpU-54" value="导出备案材料" style="" vertex="1" parent="2">
          <mxGeometry x="185.5" y="552" width="74.5" height="34" as="geometry" />
        </mxCell>
        <mxCell id="2_pSetCl_xjuwuKrEGpU-67" style="edgeStyle=orthogonalEdgeStyle;rounded=0;orthogonalLoop=1;jettySize=auto;html=1;exitX=0.5;exitY=1;exitDx=0;exitDy=0;strokeColor=#FF3333;" edge="1" parent="2" source="2_pSetCl_xjuwuKrEGpU-61" target="38">
          <mxGeometry relative="1" as="geometry" />
        </mxCell>
        <mxCell id="2_pSetCl_xjuwuKrEGpU-61" value="导出筛选后&#xa;备案材料" style="" vertex="1" parent="2">
          <mxGeometry x="285.5" y="552" width="74.5" height="34" as="geometry" />
        </mxCell>
        <mxCell id="3" value="系统参数是否校验关联方" style="swimlane;whiteSpace=wrap" parent="1" vertex="1">
          <mxGeometry x="540" y="128" width="235" height="732" as="geometry" />
        </mxCell>
        <mxCell id="17" value="" style="endArrow=open;strokeColor=#FF0000;endFill=1;rounded=0" parent="3" target="16" edge="1">
          <mxGeometry relative="1" as="geometry">
            <mxPoint x="75" y="160" as="sourcePoint" />
          </mxGeometry>
        </mxCell>
        <mxCell id="19" value="" style="endArrow=open;strokeColor=#FF0000;endFill=1;rounded=0" parent="3" target="18" edge="1">
          <mxGeometry relative="1" as="geometry">
            <mxPoint x="75" y="270" as="sourcePoint" />
          </mxGeometry>
        </mxCell>
        <mxCell id="21" value="参数值" style="rhombus;fillColor=#ffffc0;strokeColor=#ff0000;" parent="3" vertex="1">
          <mxGeometry x="92" y="112" width="95" height="45" as="geometry" />
        </mxCell>
        <mxCell id="2_pSetCl_xjuwuKrEGpU-46" value="" style="endArrow=open;strokeColor=#FF0000;endFill=1;rounded=0;exitX=1;exitY=0.5;exitDx=0;exitDy=0;" edge="1" parent="3" source="8">
          <mxGeometry relative="1" as="geometry">
            <mxPoint x="-111" y="379" as="sourcePoint" />
            <mxPoint x="375" y="382" as="targetPoint" />
          </mxGeometry>
        </mxCell>
        <mxCell id="4" value="入参交互标志" style="swimlane;whiteSpace=wrap" parent="1" vertex="1">
          <mxGeometry x="775" y="128" width="224.5" height="732" as="geometry" />
        </mxCell>
        <mxCell id="2_pSetCl_xjuwuKrEGpU-45" value="入参值" style="rhombus;fillColor=#ffffc0;strokeColor=#ff0000;" vertex="1" parent="4">
          <mxGeometry x="97.5" y="359" width="95" height="45" as="geometry" />
        </mxCell>
        <mxCell id="2_pSetCl_xjuwuKrEGpU-52" style="edgeStyle=orthogonalEdgeStyle;rounded=0;orthogonalLoop=1;jettySize=auto;html=1;exitX=0.5;exitY=1;exitDx=0;exitDy=0;entryX=0.5;entryY=0;entryDx=0;entryDy=0;strokeColor=#FF3333;" edge="1" parent="1" source="21" target="2_pSetCl_xjuwuKrEGpU-49">
          <mxGeometry relative="1" as="geometry" />
        </mxCell>
        <mxCell id="2_pSetCl_xjuwuKrEGpU-53" value="是" style="edgeLabel;html=1;align=center;verticalAlign=middle;resizable=0;points=[];" vertex="1" connectable="0" parent="2_pSetCl_xjuwuKrEGpU-52">
          <mxGeometry x="-0.3829" y="1" relative="1" as="geometry">
            <mxPoint as="offset" />
          </mxGeometry>
        </mxCell>
        <mxCell id="2_pSetCl_xjuwuKrEGpU-55" style="edgeStyle=orthogonalEdgeStyle;rounded=0;orthogonalLoop=1;jettySize=auto;html=1;exitX=1;exitY=0.5;exitDx=0;exitDy=0;strokeColor=#FF3333;" edge="1" parent="1" source="21" target="2_pSetCl_xjuwuKrEGpU-54">
          <mxGeometry relative="1" as="geometry" />
        </mxCell>
        <mxCell id="2_pSetCl_xjuwuKrEGpU-56" value="否" style="edgeLabel;html=1;align=center;verticalAlign=middle;resizable=0;points=[];" vertex="1" connectable="0" parent="2_pSetCl_xjuwuKrEGpU-55">
          <mxGeometry x="-0.7535" relative="1" as="geometry">
            <mxPoint as="offset" />
          </mxGeometry>
        </mxCell>
        <mxCell id="2_pSetCl_xjuwuKrEGpU-59" style="edgeStyle=orthogonalEdgeStyle;rounded=0;orthogonalLoop=1;jettySize=auto;html=1;exitX=0.5;exitY=1;exitDx=0;exitDy=0;entryX=0.5;entryY=0;entryDx=0;entryDy=0;strokeColor=#FF3333;" edge="1" parent="1" source="2_pSetCl_xjuwuKrEGpU-45" target="10">
          <mxGeometry relative="1" as="geometry">
            <Array as="points">
              <mxPoint x="920" y="560" />
              <mxPoint x="280" y="560" />
            </Array>
          </mxGeometry>
        </mxCell>
        <mxCell id="2_pSetCl_xjuwuKrEGpU-60" value="交互" style="edgeLabel;html=1;align=center;verticalAlign=middle;resizable=0;points=[];" vertex="1" connectable="0" parent="2_pSetCl_xjuwuKrEGpU-59">
          <mxGeometry x="-0.6449" y="1" relative="1" as="geometry">
            <mxPoint as="offset" />
          </mxGeometry>
        </mxCell>
        <mxCell id="2_pSetCl_xjuwuKrEGpU-62" style="edgeStyle=orthogonalEdgeStyle;rounded=0;orthogonalLoop=1;jettySize=auto;html=1;exitX=1;exitY=0.5;exitDx=0;exitDy=0;strokeColor=#FF3333;" edge="1" parent="1" source="2_pSetCl_xjuwuKrEGpU-45" target="2_pSetCl_xjuwuKrEGpU-61">
          <mxGeometry relative="1" as="geometry" />
        </mxCell>
        <mxCell id="2_pSetCl_xjuwuKrEGpU-64" value="不交互" style="edgeLabel;html=1;align=center;verticalAlign=middle;resizable=0;points=[];" vertex="1" connectable="0" parent="2_pSetCl_xjuwuKrEGpU-62">
          <mxGeometry x="-0.1719" y="-2" relative="1" as="geometry">
            <mxPoint as="offset" />
          </mxGeometry>
        </mxCell>
      </root>
    </mxGraphModel>
  </diagram>
</mxfile>
